<svg xmlns="http://www.w3.org/2000/svg" viewBox="0 0 760 200" fill="none">
  
  
  <g transform="translate(20, 20)">
    <rect x="0" y="0" width="160" height="160" rx="38" fill="#226940"></rect>
    <path d="&#xA;      M 106 46&#xA;      C 106 38, 97 32, 83 32&#xA;      C 64 32, 51 42, 51 58&#xA;      C 51 73, 62 79, 80 83&#xA;      C 98 87, 109 91, 109 102&#xA;      C 109 112, 98 118, 83 118&#xA;      C 69 118, 58 114, 54 104&#xA;      L 54 115&#xA;      C 61 124, 72 128, 83 128&#xA;      C 104 128, 118 118, 118 102&#xA;      C 118 86, 106 80, 88 76&#xA;      C 72 73, 61 69, 61 58&#xA;      C 61 49, 70 41, 83 41&#xA;      C 93 41, 99 44, 102 51&#xA;      Z&#xA;    " fill="#F4EFE6" transform="scale(1.0) translate(0, 0)"></path>
    <path d="&#xA;      M 102 51&#xA;      C 105 48, 110 47, 115 48&#xA;      C 113 53, 110 56, 106 58&#xA;      Z&#xA;    " fill="#F4EFE6"></path>
    <circle cx="118" cy="40" r="6" fill="#E07856"></circle>
  </g>
  
  <text x="210" y="138" class="wm" fill="#226940">snapchef</text>
</svg>