<svg xmlns="http://www.w3.org/2000/svg" viewBox="0 0 200 200" fill="none">
  
  
  <rect x="0" y="0" width="200" height="200" rx="46" fill="#226940"></rect>
  
  <path d="&#xA;    M 132 58&#xA;    C 132 47, 121 40, 104 40&#xA;    C 80 40, 64 53, 64 73&#xA;    C 64 91, 78 99, 100 104&#xA;    C 122 109, 136 114, 136 127&#xA;    C 136 140, 122 148, 104 148&#xA;    C 86 148, 72 142, 68 130&#xA;    L 68 144&#xA;    C 76 154, 90 160, 104 160&#xA;    C 130 160, 148 148, 148 127&#xA;    C 148 108, 132 100, 110 95&#xA;    C 90 91, 76 86, 76 73&#xA;    C 76 62, 88 52, 104 52&#xA;    C 116 52, 124 56, 128 64&#xA;    Z&#xA;  " fill="#F4EFE6"></path>
  
  <path d="&#xA;    M 128 64&#xA;    C 132 60, 138 58, 144 60&#xA;    C 142 66, 138 70, 132 72&#xA;    Z&#xA;  " fill="#F4EFE6"></path>
  
  <circle cx="148" cy="50" r="7" fill="#E07856"></circle>
</svg>