<svg xmlns="http://www.w3.org/2000/svg" viewBox="0 0 256 256" fill="none">
  <defs>
    <linearGradient id="pat-camo" x1="0" y1="0" x2="1" y2="1">
      <stop offset="0%" stop-color="#12462A"></stop>
      <stop offset="50%" stop-color="#226940"></stop>
      <stop offset="100%" stop-color="#3F8252"></stop>
    </linearGradient>
    <pattern id="pat-leaf" x="0" y="0" width="64" height="64" patternUnits="userSpaceOnUse">
      <rect width="64" height="64" fill="url(#pat-camo)"></rect>
      <path d="M10 14 Q22 6 30 18 Q22 28 10 22 Z" fill="#9CC698" opacity="0.55"></path>
      <path d="M40 36 Q52 28 56 42 Q48 52 38 46 Z" fill="#56A56E" opacity="0.7"></path>
      <path d="M8 44 Q18 38 22 50 Q14 58 6 52 Z" fill="#3F8252" opacity="0.85"></path>
      <path d="M44 6 Q54 2 58 12 Q52 20 42 16 Z" fill="#6B9A5E" opacity="0.6"></path>
      <path d="M28 30 Q34 26 36 34 Q30 38 26 34 Z" fill="#82DAB2" opacity="0.45"></path>
    </pattern>
  </defs>
  <rect width="256" height="256" fill="url(#pat-leaf)"></rect>
</svg>